<svg xmlns="http://www.w3.org/2000/svg" viewBox="0 0 1600 1100">
<defs><linearGradient id="g" x1="0" y1="0" x2="1" y2="1"><stop stop-color="#0f1c3f"/><stop offset="1" stop-color="#3247a8"/></linearGradient><linearGradient id="r" x1="0" y1="0" x2="1" y2="1"><stop stop-color="#ff1d2d"/><stop offset="1" stop-color="#ff5b5b"/></linearGradient></defs>
<rect width="1600" height="1100" fill="#eef2f7"/>
<rect x="0" y="0" width="1600" height="640" fill="url(#g)"/>
<circle cx="1320" cy="160" r="220" fill="#ffffff" opacity=".08"/>
<path d="M0 730C190 620 350 560 560 578c233 20 355 114 552 114 144 0 284-60 488-185v593H0z" fill="#dce3f1"/>
<rect x="130" y="360" width="530" height="370" rx="28" fill="#ffffff" opacity=".98"/>
<rect x="740" y="250" width="700" height="580" rx="32" fill="#0f172a" opacity=".22"/>
<rect x="790" y="290" width="590" height="510" rx="28" fill="#ffffff" opacity=".98"/>
<path d="M180 668h430v-90H474v-90H352v-72h-78v58h-94z" fill="#cdd6ea"/>
<path d="M250 640h300v-44H470v-55h-92v-46h-55v40h-73z" fill="#2f449f" opacity=".9"/>
<rect x="860" y="370" width="420" height="220" rx="22" fill="#f6f8fc" stroke="#dae2f0" stroke-width="4"/>
<rect x="900" y="410" width="155" height="140" rx="18" fill="#ff1d2d" opacity=".95"/>
<rect x="1090" y="410" width="150" height="32" rx="16" fill="#2f449f"/>
<rect x="1090" y="458" width="112" height="24" rx="12" fill="#b8c5ea"/>
<rect x="1090" y="498" width="140" height="24" rx="12" fill="#b8c5ea"/>
<rect x="1090" y="538" width="92" height="24" rx="12" fill="#b8c5ea"/>
<rect x="910" y="690" width="255" height="54" rx="18" fill="url(#r)"/>
<text x="945" y="725" font-family="Arial, sans-serif" font-size="28" font-weight="700" fill="#fff">POLYESTER / EPOXY</text>
</svg>