<svg xmlns="http://www.w3.org/2000/svg" viewBox="0 0 1600 900">
<defs><linearGradient id="bg" x1="0" y1="0" x2="1" y2="1"><stop stop-color="#172554"/><stop offset="1" stop-color="#3347a8"/></linearGradient></defs>
<rect width="1600" height="900" fill="#f8fafc"/>
<rect x="0" y="0" width="1600" height="900" rx="40" fill="url(#bg)"/>
<path d="M0 620c183-40 307-56 462-10 124 36 232 121 376 121 179 0 274-101 402-148 127-46 228-38 360-12v209H0z" fill="#ffffff" opacity=".10"/>
<rect x="150" y="170" width="600" height="470" rx="34" fill="#fff" opacity=".97"/>
<rect x="860" y="150" width="570" height="560" rx="34" fill="#fff" opacity=".13"/>
<rect x="220" y="250" width="230" height="220" rx="26" fill="#ff1d2d"/>
<rect x="486" y="250" width="180" height="30" rx="15" fill="#3146a0"/>
<rect x="486" y="305" width="210" height="26" rx="13" fill="#c7d3f1"/>
<rect x="486" y="348" width="170" height="26" rx="13" fill="#c7d3f1"/>
<rect x="486" y="391" width="140" height="26" rx="13" fill="#c7d3f1"/>
<rect x="220" y="510" width="476" height="58" rx="18" fill="#eff3fb"/>
<rect x="960" y="255" width="360" height="160" rx="28" fill="#fff" opacity=".96"/>
<rect x="1005" y="305" width="270" height="60" rx="24" fill="#ff1d2d"/>
<text x="1042" y="346" font-family="Arial, sans-serif" font-size="34" font-weight="700" fill="#fff">TEKNİK DOKÜMAN</text>
</svg>