<svg xmlns="http://www.w3.org/2000/svg" viewBox="0 0 1200 900">
<rect width="1200" height="900" fill="#eef2f7"/>
<rect width="1200" height="280" fill="#3046a1"/>
<path d="M0 695c120-51 221-79 351-56 132 24 228 107 370 107 177 0 280-125 479-150v304H0z" fill="#d7deef"/>
<rect x="150" y="190" width="310" height="500" rx="16" fill="#ffffff"/>
<rect x="228" y="130" width="260" height="560" rx="16" fill="#edf1f8"/>
<rect x="350" y="90" width="190" height="600" rx="16" fill="#ff1d2d"/>
<rect x="600" y="250" width="440" height="340" rx="28" fill="#fff"/>
<rect x="652" y="315" width="336" height="18" rx="9" fill="#3146a0"/>
<rect x="652" y="360" width="286" height="18" rx="9" fill="#bec9e8"/>
<rect x="652" y="405" width="306" height="18" rx="9" fill="#bec9e8"/>
<rect x="652" y="450" width="246" height="18" rx="9" fill="#bec9e8"/>
<rect x="652" y="505" width="220" height="52" rx="18" fill="#ff1d2d"/>
</svg>